<?xml version="1.0" encoding="iso-8859-1"?>
<!-- Uploaded to: SVG Repo, www.svgrepo.com, Generator: SVG Repo Mixer Tools -->
<!DOCTYPE svg PUBLIC "-//W3C//DTD SVG 1.1//EN" "http://www.w3.org/Graphics/SVG/1.1/DTD/svg11.dtd">
<svg fill="#000000" height="800px" width="800px" version="1.1" id="Capa_1" xmlns="http://www.w3.org/2000/svg" xmlns:xlink="http://www.w3.org/1999/xlink" 
	 viewBox="0 0 488.207 488.207" xml:space="preserve">
<g>
	<path d="M370.082,290.328c-30.056,0-54.508,24.452-54.508,54.508c0,30.055,24.452,54.507,54.508,54.507
		c30.056,0,54.508-24.452,54.508-54.507C424.59,314.78,400.138,290.328,370.082,290.328z M370.082,385.342
		c-22.336,0-40.508-18.171-40.508-40.507c0-22.336,18.172-40.508,40.508-40.508c22.336,0,40.508,18.172,40.508,40.508
		C410.59,367.171,392.418,385.342,370.082,385.342z"/>
	<path d="M146.322,290.328c-30.056,0-54.508,24.452-54.508,54.508c0,30.055,24.452,54.507,54.508,54.507
		c30.056,0,54.508-24.452,54.508-54.507C200.83,314.78,176.378,290.328,146.322,290.328z M146.322,385.342
		c-22.336,0-40.508-18.171-40.508-40.507c0-22.336,18.172-40.508,40.508-40.508c22.336,0,40.508,18.172,40.508,40.508
		C186.83,367.171,168.658,385.342,146.322,385.342z"/>
	<path d="M481.207,289.685h-14.575l-4.687-43.413c-0.289-2.68-2.092-4.956-4.635-5.851l-76.063-26.782l-67.9-86.871
		c-1.327-1.698-3.361-2.69-5.515-2.69h-40.473v-10.459h36.362c3.866,0,7-3.134,7-7c0-3.866-3.134-7-7-7h-36.362v-3.754
		c0-3.866-3.134-7-7-7c-3.866,0-7,3.134-7,7v3.754H99.869v-3.754c0-3.866-3.134-7-7-7c-3.866,0-7,3.134-7,7v3.754H49.507
		c-3.866,0-7,3.134-7,7c0,3.866,3.134,7,7,7h36.362v10.459H49.507c-3.866,0-7,3.134-7,7v46.097c-2.069-0.701-4.277-1.098-6.58-1.098
		H20.58c-11.348,0-20.58,9.232-20.58,20.58v76.488c0,11.348,9.232,20.58,20.58,20.58h15.347c2.303,0,4.511-0.397,6.58-1.098v21.302
		h-3.062c-3.866,0-7,3.134-7,7c0,3.866,3.134,7,7,7h3.062v16.906c0,3.866,3.134,7,7,7h25.997c3.866,0,7-3.134,7-7
		c0-35.189,28.629-63.818,63.818-63.818c35.189,0,63.818,28.629,63.818,63.818v11.173c0,3.866,3.134,7,7,7h82.121
		c3.866,0,7-3.134,7-7v-11.173c0-35.189,28.63-63.818,63.82-63.818c35.19,0,63.818,28.629,63.818,63.818c0,3.866,3.134,7,7,7h40.307
		c3.866,0,7-3.134,7-7v-48.15C488.207,292.819,485.073,289.685,481.207,289.685z M99.869,113.619h153.49v10.459H99.869V113.619z
		 M35.927,279.725H20.58c-3.628,0-6.58-2.952-6.58-6.58v-76.488c0-3.628,2.952-6.58,6.58-6.58h15.347c3.628,0,6.58,2.952,6.58,6.58
		v76.488C42.507,276.773,39.555,279.725,35.927,279.725z M370.082,267.017c-42.91,0-77.82,34.909-77.82,77.818v4.173h-52.194
		l-10.014-21.079h48.39c3.866,0,7-3.134,7-7c0-3.866-3.134-7-7-7h-60.72c-11.982-27.574-39.47-46.912-71.401-46.912
		c-40.549,0-73.955,31.177-77.506,70.818H56.507V138.079h247.912l67.058,85.795c0.823,1.053,1.93,1.848,3.191,2.292l73.832,25.996
		l4.051,37.526h-27.63C410.842,275.688,391.458,267.017,370.082,267.017z M474.207,337.835h-26.619
		c-1.116-12.453-5.181-24.069-11.485-34.147h34.073c0.02,0,0.039-0.003,0.058-0.003h3.973V337.835z"/>
	<path d="M146.322,323.205c-11.927,0-21.63,9.704-21.63,21.631c0,11.927,9.703,21.63,21.63,21.63
		c11.926,0,21.629-9.703,21.629-21.63C167.952,332.908,158.249,323.205,146.322,323.205z"/>
	<path d="M370.082,323.205c-11.927,0-21.631,9.704-21.631,21.631c0,11.927,9.704,21.63,21.631,21.63
		c11.927,0,21.63-9.703,21.63-21.63C391.712,332.908,382.009,323.205,370.082,323.205z"/>
	<path d="M298.145,154.497c-1.325-1.726-3.376-2.737-5.552-2.737H187.306c-3.866,0-7,3.134-7,7v63.821c0,3.866,3.134,7,7,7h154.285
		c2.665,0,5.1-1.514,6.278-3.905c1.179-2.391,0.898-5.244-0.726-7.358L298.145,154.497z M194.306,185.647l117.966,29.934H194.306
		V185.647z"/>
	<path d="M157.811,151.759H77.408c-1.862,0-3.646,0.742-4.96,2.061c-1.314,1.319-2.048,3.107-2.04,4.969l0.268,63.821
		c0.016,3.855,3.146,6.971,7,6.971h80.135c3.866,0,7-3.134,7-7v-63.821C164.811,154.893,161.677,151.759,157.811,151.759z
		 M84.647,215.581l-0.195-46.492l66.36,16.479v30.014H84.647z"/>
	<path d="M205.573,243.025h-17.688c-3.866,0-7,3.134-7,7c0,3.866,3.134,7,7,7h17.688c3.866,0,7-3.134,7-7
		C212.573,246.159,209.439,243.025,205.573,243.025z"/>
</g>
</svg>